<?xml version="1.0" encoding="utf-8"?>
<!-- Generator: Adobe Illustrator 16.0.0, SVG Export Plug-In . SVG Version: 6.00 Build 0)  -->
<!DOCTYPE svg PUBLIC "-//W3C//DTD SVG 1.1//EN" "http://www.w3.org/Graphics/SVG/1.1/DTD/svg11.dtd">
<svg version="1.1" id="Layer_1" xmlns="http://www.w3.org/2000/svg" xmlns:xlink="http://www.w3.org/1999/xlink" x="0px" y="0px"
	 width="500px" height="500px" viewBox="0 0 500 500" enable-background="new 0 0 500 500" xml:space="preserve">
<g>
	<path fill="#ECF0F1" d="M57,373h96.765l-77.077,33.959C111.671,456.711,168,492.363,232,497.444V404h38v93.12
		c64-6.216,116.325-41.534,150.61-90.442L348.061,373H442v-61H57V373z"/>
	<path fill="#ECF0F1" d="M232.507,220c0.128,0,0.25-0.184,0.38-0.515c4.711-11.974,10.483-23.188,17.064-34.564
		c17.722-30.642,41.284-58.793,65.823-83.493c-19.365-17.591-41.237-34.3-65.823-48.769c-0.035,0.021-0.071,0.072-0.107,0.095
		C198.257,22.418,134.754,1.667,57.582,1.667c0,0,66.146,39.232,126.413,99.839C93.109,184.219,57.582,288,57.582,288h157.421h4.166
		H442v-68H232.507z"/>
</g>
<text transform="matrix(1 0 0 1 -204.9023 90.5112)" font-family="'MyriadPro-Regular'" font-size="12">#ecf0f1</text>
</svg>
